Run_40001
nRows=4
nColumns=161

# SIMM Motion File Header:
name Run_40001
datacolumns 161
datarows 4
otherdata 1
range 1.40833300 1.43333300
endheader
time	pelvis_tilt	pelvis_list	pelvis_rotation	pelvis_tx	pelvis_ty	pelvis_tz	hip_flexion_r	hip_adduction_r	hip_rotation_r	knee_angle_r	ankle_angle_r	hip_flexion_l	hip_adduction_l	hip_rotation_l	knee_angle_l	ankle_angle_l	lumbar_extension	lumbar_bending	lumbar_rotation	arm_flex_r	arm_add_r	arm_rot_r	elbow_flex_r	pro_sup_r	arm_flex_l	arm_add_l	arm_rot_l	elbow_flex_l	pro_sup_l	subtalar_angle_r	mtp_angle_r	subtalar_angle_l	mtp_angle_l	wrist_flex_r	wrist_dev_r	wrist_flex_l	wrist_dev_l	LASI_tx	LASI_ty	LASI_tz	RASI_tx	RASI_ty	RASI_tz	LPSI_tx	LPSI_ty	LPSI_tz	RPSI_tx	RPSI_ty	RPSI_tz	RTH1_tx	RTH1_ty	RTH1_tz	RTH3_tx	RTH3_ty	RTH3_tz	LTH1_tx	LTH1_ty	LTH1_tz	LTH2_tx	LTH2_ty	LTH2_tz	LTH3_tx	LTH3_ty	LTH3_tz	RTB1_tx	RTB1_ty	RTB1_tz	RTB2_tx	RTB2_ty	RTB2_tz	RTB3_tx	RTB3_ty	RTB3_tz	LTB1_tx	LTB1_ty	LTB1_tz	LTB2_tx	LTB2_ty	LTB2_tz	LTB3_tx	LTB3_ty	LTB3_tz	RCAL_tx	RCAL_ty	RCAL_tz	RTOE_tx	RTOE_ty	RTOE_tz	RMT5_tx	RMT5_ty	RMT5_tz	LCAL_tx	LCAL_ty	LCAL_tz	LTOE_tx	LTOE_ty	LTOE_tz	LMT5_tx	LMT5_ty	LMT5_tz	LACR_tx	LACR_ty	LACR_tz	RACR_tx	RACR_ty	RACR_tz	CLAV_tx	CLAV_ty	CLAV_tz	C7_tx	C7_ty	C7_tz	RUA1_tx	RUA1_ty	RUA1_tz	RUA2_tx	RUA2_ty	RUA2_tz	RUA3_tx	RUA3_ty	RUA3_tz	RLEL_tx	RLEL_ty	RLEL_tz	RMEL_tx	RMEL_ty	RMEL_tz	LUA1_tx	LUA1_ty	LUA1_tz	LUA2_tx	LUA2_ty	LUA2_tz	LUA3_tx	LUA3_ty	LUA3_tz	LLEL_tx	LLEL_ty	LLEL_tz	LMEL_tx	LMEL_ty	LMEL_tz	RFAsuperior_tx	RFAsuperior_ty	RFAsuperior_tz	RFAradius_tx	RFAradius_ty	RFAradius_tz	RFAulna_tx	RFAulna_ty	RFAulna_tz	LFAsuperior_tx	LFAsuperior_ty	LFAsuperior_tz	LFAradius_tx	LFAradius_ty	LFAradius_tz	LFAulna_tx	LFAulna_ty	LFAulna_tz
      1.40833300	     -2.96829042	      4.44442146	      5.96009900	      0.97228855	      0.97113358	     -0.33210283	    -11.13339343	     -2.71030707	     -6.55977207	    -83.91764237	    -12.43876508	     27.23893911	     14.92341496	     12.64222652	    -13.94574086	      8.17718666	     -6.32119120	     -4.46424902	      3.05425503	    -27.15533664	    -22.41025818	      4.50614840	     94.75127794	    103.17261031	    -45.85589237	    -22.08943678	     -6.52330627	    101.59490258	    118.85922550	      0.00000000	      0.00000000	      0.00000000	      0.00000000	      0.00000000	      0.00000000	      0.00000000	      0.00000000	      0.96773875	      1.01138022	     -0.44004059	      0.99732880	      0.98237722	     -0.21714014	      0.81542771	      1.03556111	     -0.36109662	      0.82594042	      1.03507906	     -0.26351827	      0.90222683	      0.82145057	     -0.15201412	      0.81014194	      0.57513910	     -0.19066278	      0.96607304	      0.82263352	     -0.49414631	      1.05804106	      0.74627967	     -0.46715085	      1.03932100	      0.61861155	     -0.43260184	      0.65459849	      0.45376352	     -0.24505169	      0.59859396	      0.49893276	     -0.18359292	      0.53238431	      0.48415545	     -0.24478936	      1.14754673	      0.42373106	     -0.34133989	      1.11960352	      0.33725376	     -0.40857420	      1.16175257	      0.25582261	     -0.32773345	      0.39622478	      0.60661980	     -0.24383010	      0.31662647	      0.41082955	     -0.26623053	      0.30287145	      0.44022909	     -0.17392923	      1.09284645	      0.09278226	     -0.31421013	      1.28471234	      0.16069248	     -0.28670040	      1.28794679	      0.11998841	     -0.36888243	      0.91090400	      1.46335091	     -0.50370388	      0.97389824	      1.45669220	     -0.12547075	      1.00349859	      1.44569333	     -0.30437279	      0.87927476	      1.50794137	     -0.31962570	      0.92598631	      1.32961812	     -0.06320413	      0.85045176	      1.33163127	     -0.06306344	      0.89072773	      1.25641694	     -0.02712527	      0.85727424	      1.19284398	     -0.00323590	      0.81111343	      1.17647851	     -0.07089621	      0.80927183	      1.37595773	     -0.55848502	      0.73686541	      1.35878444	     -0.53115608	      0.77100378	      1.29807791	     -0.57669721	      0.69402925	      1.25327265	     -0.59329752	      0.67294079	      1.25359135	     -0.50867536	      0.95135044	      1.12826704	     -0.06033791	      1.01339601	      1.07636884	     -0.15312161	      1.00143292	      1.02429687	     -0.10712560	      0.78169850	      1.15703488	     -0.59222487	      0.87426263	      1.09787143	     -0.52105014	      0.84776286	      1.06261158	     -0.57408865
      1.41666700	     -2.70274004	      5.20106890	      6.35719090	      0.97100410	      0.96410067	     -0.33263886	     -9.01911026	     -4.45133105	     -7.54110896	    -90.36029337	    -10.61343785	     26.75022131	     16.14627600	     11.73513124	    -16.26162185	      5.49545246	     -7.12136729	     -5.38151867	      1.80244580	    -27.59104636	    -22.01315766	      4.58429361	     92.17238330	    103.18387503	    -44.76084837	    -22.22026388	     -6.65429730	    101.68177276	    118.33156688	      0.00000000	      0.00000000	      0.00000000	      0.00000000	      0.00000000	      0.00000000	      0.00000000	      0.00000000	      0.96569996	      1.00445043	     -0.44018658	      0.99675967	      0.97446672	     -0.21734629	      0.81426136	      1.02702133	     -0.36010623	      0.82470145	      1.02565091	     -0.26160511	      0.90441539	      0.81289869	     -0.15166552	      0.82224783	      0.56504762	     -0.18780904	      0.96351425	      0.81587022	     -0.49368888	      1.05628170	      0.74110874	     -0.46639228	      1.03665110	      0.61050354	     -0.43348502	      0.67076202	      0.45045288	     -0.24121112	      0.61727899	      0.50031307	     -0.18096674	      0.55049075	      0.48875126	     -0.24152651	      1.14004354	      0.41247586	     -0.34065342	      1.10628130	      0.32671638	     -0.40600056	      1.14785209	      0.24469795	     -0.32489245	      0.42146914	      0.62028967	     -0.24547948	      0.33384371	      0.42750732	     -0.26223262	      0.32191714	      0.45965416	     -0.17049235	      1.07142988	      0.09314936	     -0.31059368	      1.26699798	      0.13971052	     -0.28176831	      1.26744170	      0.10047460	     -0.36440692	      0.91423259	      1.45484227	     -0.50557572	      0.97276812	      1.44922727	     -0.12583635	      1.00436210	      1.43809049	     -0.30485720	      0.88047990	      1.50068367	     -0.32138084	      0.92245462	      1.32261089	     -0.06427591	      0.84714763	      1.32665035	     -0.06436656	      0.88533353	      1.24974948	     -0.02964646	      0.85000298	      1.18776920	     -0.00438169	      0.80469129	      1.17178144	     -0.07260228	      0.81358836	      1.36531494	     -0.56114597	      0.74080757	      1.34743809	     -0.53513055	      0.77637783	      1.28672518	     -0.57929734	      0.70012673	      1.24126874	     -0.59652199	      0.67795766	      1.24160523	     -0.51217404	      0.94203988	      1.11735832	     -0.05798205	      1.00318071	      1.05972125	     -0.14783426	      0.98800735	      1.00958556	     -0.10065129	      0.78883962	      1.14598980	     -0.59463910	      0.88198187	      1.08873844	     -0.52250720	      0.85623910	      1.05295388	     -0.57548748
      1.42500000	     -2.41145968	      6.02969329	      6.66591016	      0.96877598	      0.95660094	     -0.33325708	     -6.76609358	     -6.38699857	     -8.23493980	    -96.70434682	     -8.95740911	     26.65981032	     17.47478961	      9.96915581	    -19.32186304	      2.94257270	     -8.06565419	     -6.32342554	      0.49222803	    -27.90651017	    -21.69748223	      4.65334632	     89.53565016	    103.19267546	    -43.54662857	    -22.35462876	     -6.70784037	    101.91261169	    117.80845813	      0.00000000	      0.00000000	      0.00000000	      0.00000000	      0.00000000	      0.00000000	      0.00000000	      0.00000000	      0.96311975	      0.99701617	     -0.44056678	      0.99485784	      0.96585803	     -0.21756075	      0.81219875	      1.01804893	     -0.35903620	      0.82208183	      1.01548253	     -0.25985733	      0.90655569	      0.80411350	     -0.15164705	      0.83517216	      0.55513421	     -0.18452672	      0.96046134	      0.80835227	     -0.49417091	      1.05376162	      0.73415728	     -0.46737369	      1.03298305	      0.60221059	     -0.43358478	      0.68826555	      0.44664500	     -0.23734966	      0.63737544	      0.50084013	     -0.17828206	      0.57009153	      0.49193924	     -0.23814473	      1.13326602	      0.40235579	     -0.33936853	      1.09421536	      0.31729045	     -0.40222836	      1.13330638	      0.23482572	     -0.32045073	      0.44804813	      0.63140633	     -0.24676091	      0.35332358	      0.44187283	     -0.25890891	      0.34312224	      0.47620334	     -0.16770348	      1.04842758	      0.09561372	     -0.30565000	      1.24748963	      0.11815608	     -0.27571626	      1.24440492	      0.08323890	     -0.35979290	      0.91775504	      1.44570895	     -0.50757284	      0.97104874	      1.44134449	     -0.12583583	      1.00526565	      1.43016712	     -0.30518917	      0.88135379	      1.49283958	     -0.32315259	      0.91824649	      1.31491611	     -0.06527185	      0.84326806	      1.32090095	     -0.06553923	      0.87913315	      1.24239989	     -0.03218815	      0.84205094	      1.18220914	     -0.00566432	      0.79763799	      1.16658729	     -0.07446606	      0.81820014	      1.35386671	     -0.56401163	      0.74494447	      1.33522754	     -0.53938592	      0.78190783	      1.27470169	     -0.58209934	      0.70656793	      1.22859565	     -0.60007247	      0.68316265	      1.22892859	     -0.51612560	      0.93182235	      1.10596493	     -0.05536473	      0.99170933	      1.04267022	     -0.14203787	      0.97334745	      0.99469060	     -0.09374207	      0.79650321	      1.13445046	     -0.59695320	      0.89003937	      1.07951868	     -0.52350502	      0.86536891	      1.04301403	     -0.57639783
      1.43333300	     -2.14452134	      6.87267355	      7.07056875	      0.96561538	      0.94890355	     -0.33420556	     -4.31230835	     -8.40536241	     -8.75734449	   -102.84776708	     -7.65301150	     27.06900246	     18.89893999	      7.73800005	    -23.34373573	      1.72351990	     -9.09224128	     -7.20728474	     -1.07552184	    -28.06877194	    -21.46661521	      4.74095815	     86.77670325	    103.27084552	    -42.20807471	    -22.46793217	     -6.68831645	    102.25026571	    117.19874775	      0.00000000	      0.00000000	      0.00000000	      0.00000000	      0.00000000	      0.00000000	      0.00000000	      0.00000000	      0.95987328	      0.98935312	     -0.44146549	      0.99216342	      0.95707801	     -0.21801019	      0.80899353	      1.00915965	     -0.35782594	      0.81852426	      1.00487692	     -0.25842763	      0.90939436	      0.79525337	     -0.15187560	      0.84918293	      0.54551266	     -0.18066379	      0.95687800	      0.80074286	     -0.49547748	      1.05023504	      0.72548023	     -0.46983960	      1.02820878	      0.59471541	     -0.43252225	      0.70707487	      0.44250277	     -0.23362187	      0.65865750	      0.50027859	     -0.17563117	      0.59117151	      0.49387613	     -0.23499792	      1.12668093	      0.39475445	     -0.33689904	      1.08461772	      0.31038939	     -0.39777773	      1.11757531	      0.22746164	     -0.31487457	      0.47583651	      0.63983411	     -0.24754302	      0.37443980	      0.45378696	     -0.25625617	      0.36617954	      0.48966329	     -0.16546503	      1.02342076	      0.09903078	     -0.29985232	      1.22511383	      0.09949299	     -0.26946192	      1.21847024	      0.07098880	     -0.35570621	      0.92144374	      1.43624970	     -0.50975762	      0.96869025	      1.43333288	     -0.12542029	      1.00620919	      1.42221994	     -0.30527879	      0.88197318	      1.48491440	     -0.32504777	      0.91329505	      1.30686594	     -0.06611888	      0.83866426	      1.31452022	     -0.06670121	      0.87213107	      1.23461712	     -0.03452645	      0.83345597	      1.17630763	     -0.00709353	      0.78997633	      1.16103920	     -0.07648704	      0.82317899	      1.34170978	     -0.56700963	      0.74934678	      1.32228937	     -0.54394411	      0.78774972	      1.26204632	     -0.58508128	      0.71343574	      1.21540782	     -0.60389623	      0.68867699	      1.21577190	     -0.52037754	      0.92068424	      1.09427703	     -0.05250412	      0.97899273	      1.02541465	     -0.13579090	      0.95748582	      0.97988782	     -0.08638347	      0.80478423	      1.12260845	     -0.59906317	      0.89854452	      1.07048404	     -0.52400092	      0.87519067	      1.03301756	     -0.57670498
